<svg width="750" height="500" viewBox="0 0 750 500" fill="none" xmlns="http://www.w3.org/2000/svg">
<path d="M219.882 122.263L107.678 197.318L218.193 362.535L330.398 287.48L219.882 122.263Z" fill="#F5F5F5"/>
<path d="M272.419 279.66L271.145 287.541L215.367 279.506L216.64 271.625L272.419 279.66Z" fill="#E0E0E0"/>
<path d="M244.328 251.546L252.332 252.7L243.458 307.617L235.453 306.465L244.328 251.546Z" fill="#E0E0E0"/>
<path d="M192.952 181.745C193.032 181.865 181.787 189.526 167.84 198.855C153.888 208.187 142.516 215.653 142.436 215.533C142.356 215.414 153.598 207.754 167.551 198.422C181.498 189.093 192.872 181.626 192.952 181.745Z" fill="#E0E0E0"/>
<path d="M234.217 171.387C234.297 171.507 215.598 184.154 192.458 199.631C169.309 215.114 150.485 227.565 150.405 227.445C150.325 227.326 169.02 214.681 192.168 199.198C215.308 183.721 234.137 171.268 234.217 171.387Z" fill="#E0E0E0"/>
<path d="M242.486 183.753C242.566 183.873 223.867 196.52 200.727 211.997C177.578 227.48 158.754 239.931 158.674 239.811C158.594 239.691 177.289 227.047 200.437 211.564C223.578 196.087 242.406 183.634 242.486 183.753Z" fill="#E0E0E0"/>
<path d="M250.758 196.12C250.838 196.24 232.139 208.887 208.999 224.364C185.85 239.847 167.026 252.298 166.946 252.178C166.866 252.059 185.561 239.414 208.709 223.931C231.85 208.453 250.678 196 250.758 196.12Z" fill="#E0E0E0"/>
<path d="M259.029 208.486C259.109 208.606 240.41 221.252 217.27 236.73C194.121 252.213 175.297 264.664 175.217 264.544C175.137 264.424 193.832 251.78 216.98 236.297C240.12 220.82 258.949 208.367 259.029 208.486Z" fill="#E0E0E0"/>
<path d="M595.078 232.976L500.846 296.009L593.66 434.763L687.892 371.73L595.078 232.976Z" fill="#F5F5F5"/>
<path d="M639.199 365.18L638.13 371.798L591.285 365.049L592.355 358.431L639.199 365.18Z" fill="#E0E0E0"/>
<path d="M615.607 341.569L622.329 342.538L614.876 388.659L608.154 387.691L615.607 341.569Z" fill="#E0E0E0"/>
<path d="M572.459 282.948C572.539 283.068 563.106 289.517 551.392 297.352C539.674 305.189 530.114 311.444 530.034 311.324C529.954 311.204 539.385 304.756 551.103 296.919C562.816 289.085 572.379 282.829 572.459 282.948Z" fill="#E0E0E0"/>
<path d="M607.114 274.249C607.194 274.369 591.501 285.005 572.067 298.004C552.626 311.007 536.807 321.448 536.727 321.328C536.647 321.208 552.337 310.574 571.778 297.571C591.211 284.573 607.034 274.13 607.114 274.249Z" fill="#E0E0E0"/>
<path d="M614.061 284.635C614.141 284.755 598.448 295.392 579.014 308.39C559.573 321.393 543.754 331.834 543.674 331.714C543.594 331.594 559.284 320.96 578.725 307.957C598.158 294.958 613.981 284.515 614.061 284.635Z" fill="#E0E0E0"/>
<path d="M621.006 295.02C621.086 295.14 605.393 305.776 585.959 318.775C566.518 331.778 550.699 342.219 550.619 342.099C550.539 341.98 566.229 331.345 585.67 318.342C605.103 305.344 620.926 294.901 621.006 295.02Z" fill="#E0E0E0"/>
<path d="M627.954 305.406C628.034 305.526 612.341 316.162 592.907 329.161C573.466 342.164 557.647 352.605 557.567 352.485C557.487 352.366 573.177 341.731 592.618 328.728C612.051 315.73 627.874 305.286 627.954 305.406Z" fill="#E0E0E0"/>
<path d="M445.99 128.328L343.172 73.3398L262.203 224.735L365.021 279.724L445.99 128.328Z" fill="#F5F5F5"/>
<path d="M347.421 232.368L340.898 234.602L324.34 188.828L330.864 186.594L347.421 232.368Z" fill="#E0E0E0"/>
<path d="M357.422 199.529L359.799 206.098L314.339 221.667L311.963 215.098L357.422 199.529Z" fill="#E0E0E0"/>
<path d="M389.724 131.993C389.643 132.144 379.215 126.723 366.434 119.888C353.649 113.05 343.353 107.387 343.434 107.236C343.515 107.086 353.941 112.505 366.726 119.342C379.507 126.178 389.805 131.843 389.724 131.993Z" fill="#E0E0E0"/>
<path d="M414.396 159.227C414.315 159.378 397.056 150.304 375.852 138.964C354.64 127.619 337.515 118.304 337.596 118.153C337.677 118.003 354.932 127.074 376.144 138.419C397.348 149.759 414.477 159.076 414.396 159.227Z" fill="#E0E0E0"/>
<path d="M408.337 170.559C408.256 170.71 390.997 161.636 369.793 150.295C348.581 138.95 331.456 129.635 331.537 129.484C331.618 129.334 348.873 138.405 370.085 149.75C391.289 161.09 408.417 170.408 408.337 170.559Z" fill="#E0E0E0"/>
<path d="M402.275 181.89C402.194 182.041 384.935 172.967 363.731 161.626C342.519 150.282 325.394 140.966 325.475 140.815C325.555 140.664 342.811 149.736 364.023 161.081C385.227 172.422 402.356 181.74 402.275 181.89Z" fill="#E0E0E0"/>
<path d="M396.216 193.222C396.135 193.373 378.877 184.299 357.672 172.958C336.46 161.614 319.335 152.298 319.416 152.147C319.497 151.997 336.752 161.068 357.964 172.413C379.168 183.754 396.296 193.072 396.216 193.222Z" fill="#E0E0E0"/>
<path opacity="0.2" d="M396.755 0H394.172V43.983H396.755V0Z" fill="black"/>
<path d="M335.232 97.1891H455.693C455.693 97.1891 444.571 43.9561 394.55 43.9561C350.057 43.9551 335.232 97.1891 335.232 97.1891Z" fill="url(#paint0_linear_4460_210)"/>
<path d="M396.755 0H394.172V43.983H396.755V0Z" fill="url(#paint1_linear_4460_210)"/>
<path d="M663.667 439.828C663.667 439.972 534.416 440.088 375.014 440.088C215.557 440.088 86.334 439.971 86.334 439.828C86.334 439.684 215.557 439.568 375.014 439.568C534.416 439.568 663.667 439.685 663.667 439.828Z" fill="#263238"/>
<path d="M118.285 377.201C121.666 377.32 124.84 379.155 127.07 381.7C129.3 384.244 130.667 387.443 131.542 390.712C133.234 397.035 132.194 404.498 130.391 410.79C123.545 408.343 119.324 401.043 117.415 397.204C114.397 391.138 112.628 378.342 118.285 377.201Z" fill="#E9891B"/>
<path d="M118.285 377.201C121.666 377.32 124.84 379.155 127.07 381.7C129.3 384.244 130.667 387.443 131.542 390.712C133.234 397.035 132.194 404.498 130.391 410.79C123.545 408.343 119.324 401.043 117.415 397.204C114.397 391.138 112.628 378.342 118.285 377.201Z" fill="url(#paint2_linear_4460_210)"/>
<path d="M140.241 418.454C138.081 415.353 138.03 411.04 139.738 407.668C141.445 404.296 144.726 401.865 148.339 400.755C150.01 400.242 151.948 400.026 153.401 400.997C154.76 401.904 155.347 403.685 155.171 405.309C154.996 406.933 154.173 408.42 153.202 409.734C149.873 414.241 145.824 417.991 140.241 418.454Z" fill="#E9891B"/>
<path d="M140.241 418.454C138.081 415.353 138.03 411.04 139.738 407.668C141.445 404.296 144.726 401.865 148.339 400.755C150.01 400.242 151.948 400.026 153.401 400.997C154.76 401.904 155.347 403.685 155.171 405.309C154.996 406.933 154.173 408.42 153.202 409.734C149.873 414.241 145.824 417.991 140.241 418.454Z" fill="url(#paint3_linear_4460_210)"/>
<path d="M140.995 439.584C140.962 439.589 140.858 439.12 140.689 438.27C140.506 437.332 140.269 436.121 139.985 434.666C139.445 431.636 138.588 427.327 139.236 422.563C139.859 417.82 141.747 413.766 143.726 411.345C144.7 410.12 145.633 409.253 146.323 408.72C146.657 408.439 146.951 408.267 147.138 408.135C147.329 408.009 147.434 407.95 147.444 407.963C147.519 408.048 145.844 409.08 143.993 411.549C142.118 413.978 140.321 417.963 139.707 422.626C139.069 427.293 139.859 431.563 140.316 434.609C140.561 436.139 140.758 437.379 140.872 438.24C140.985 439.101 141.027 439.58 140.995 439.584Z" fill="#263238"/>
<path d="M120.494 386.826C120.509 386.819 120.604 386.998 120.77 387.344C120.952 387.738 121.186 388.243 121.475 388.868C122.08 390.195 122.93 392.126 123.961 394.521C126.024 399.31 128.78 405.967 131.658 413.385C134.535 420.806 136.987 427.582 138.692 432.509C139.546 434.973 140.219 436.972 140.667 438.36C140.875 439.017 141.043 439.547 141.173 439.961C141.284 440.329 141.334 440.524 141.319 440.53C141.303 440.535 141.223 440.35 141.083 439.992C140.931 439.586 140.735 439.065 140.493 438.42C139.973 436.995 139.255 435.028 138.376 432.621C136.59 427.725 134.09 420.972 131.215 413.556C128.339 406.143 125.633 399.471 123.651 394.651C122.677 392.281 121.881 390.344 121.304 388.941C121.048 388.302 120.841 387.785 120.68 387.382C120.544 387.024 120.479 386.833 120.494 386.826Z" fill="#263238"/>
<path d="M132.868 425.604C128.831 418.735 121.293 414.051 113.346 413.475C111.322 413.328 108.888 413.669 107.986 415.486C107.082 417.306 108.291 419.461 109.67 420.954C115.406 427.167 125.11 429.333 132.944 426.149" fill="#E9891B"/>
<path d="M132.868 425.604C128.831 418.735 121.293 414.051 113.346 413.475C111.322 413.328 108.888 413.669 107.986 415.486C107.082 417.306 108.291 419.461 109.67 420.954C115.406 427.167 125.11 429.333 132.944 426.149" fill="url(#paint4_linear_4460_210)"/>
<path d="M116.428 418.892C116.43 418.859 116.88 418.878 117.695 418.939C118.103 418.967 118.602 419.003 119.173 419.11C119.743 419.216 120.406 419.278 121.112 419.475C121.823 419.649 122.607 419.823 123.419 420.116C124.247 420.361 125.097 420.715 125.99 421.093C127.754 421.894 129.625 422.942 131.407 424.305C133.176 425.684 134.67 427.225 135.885 428.736C136.469 429.511 137.027 430.245 137.462 430.991C137.943 431.708 138.3 432.429 138.635 433.079C138.994 433.718 139.206 434.35 139.441 434.881C139.678 435.412 139.826 435.89 139.944 436.282C140.187 437.063 140.305 437.497 140.274 437.506C140.173 437.541 139.686 435.793 138.338 433.233C137.988 432.6 137.619 431.9 137.131 431.203C136.689 430.477 136.127 429.764 135.544 429.009C134.33 427.538 132.855 426.035 131.118 424.681C129.368 423.343 127.537 422.302 125.81 421.492C124.936 421.109 124.104 420.746 123.293 420.489C122.499 420.185 121.729 419.995 121.032 419.801C118.227 419.091 116.417 418.995 116.428 418.892Z" fill="#263238"/>
<path d="M570.362 105.475C567.422 106.152 565.99 109.535 565.711 112.54C565.432 115.544 565.815 118.717 564.554 121.458C563.134 124.543 559.742 126.817 559.629 130.212C559.56 132.281 560.789 134.227 560.73 136.297C560.633 139.696 557.167 142.265 556.985 145.661C556.854 148.106 558.482 150.453 558.091 152.87C557.786 154.751 556.322 156.233 555.703 158.035C554.469 161.628 556.937 165.583 560.152 167.605C563.735 169.859 568.323 170.44 572.354 169.152C576.386 167.864 579.787 164.729 581.399 160.816C583.178 156.497 582.789 151.634 582.403 146.98C581.198 132.474 580.302 117.943 579.717 103.399" fill="#263238"/>
<path d="M561.826 156.664C561.763 156.607 562.63 156.349 563.17 155.066C563.431 154.439 563.565 153.595 563.512 152.625C563.478 151.649 563.145 150.586 562.783 149.387C562.448 148.199 562.011 146.82 562.261 145.287C562.513 143.73 563.627 142.451 564.644 141.195C565.156 140.558 565.67 139.896 565.994 139.143C566.336 138.398 566.408 137.545 566.15 136.745C565.634 135.111 564.033 133.909 563.298 132.023C562.934 131.078 562.93 130.04 563.137 129.105C563.335 128.161 563.717 127.304 564.102 126.488C564.885 124.86 565.747 123.367 566.089 121.782C566.791 118.61 566.463 115.582 566.941 113.095C567.374 110.603 568.427 108.73 569.47 107.767C569.978 107.269 570.47 107.004 570.791 106.825C571.133 106.678 571.313 106.61 571.32 106.627C571.354 106.683 570.579 106.921 569.613 107.91C568.649 108.885 567.682 110.717 567.304 113.156C567.105 114.369 567.076 115.733 567.026 117.197C566.974 118.66 566.928 120.249 566.556 121.891C566.209 123.555 565.323 125.107 564.563 126.706C563.811 128.277 563.12 130.119 563.785 131.841C564.42 133.543 566.031 134.752 566.636 136.591C566.932 137.506 566.835 138.52 566.449 139.34C566.082 140.174 565.537 140.856 565.015 141.496C563.97 142.76 562.924 143.962 562.685 145.362C562.435 146.754 562.821 148.097 563.136 149.286C563.471 150.475 563.794 151.595 563.802 152.612C563.829 153.62 563.659 154.498 563.355 155.147C563.053 155.8 562.64 156.204 562.33 156.409C562.023 156.62 561.826 156.664 561.826 156.664Z" fill="#455A64"/>
<path d="M553.951 180.366L544.924 206.388L507.281 208.406L501.004 222.374L540.304 226.35C548.141 229.59 557.095 225.619 559.955 217.636L570.443 188.361L553.951 180.366Z" fill="#B78876"/>
<path d="M631.814 425.697C631.814 425.697 604.228 338.08 603.643 335.235C603.114 332.664 613.654 269.611 614.982 253.293L577.708 254.683C577.708 254.683 577.707 254.783 577.705 254.955L561.861 255.834L576.052 435.027H593.205L591.504 375.576C602.081 403.973 617.238 432.911 617.238 432.911L631.814 425.697Z" fill="#B78876"/>
<path d="M592.203 396.883C592.218 396.339 591.995 376.964 591.995 376.964C591.781 378.123 585.419 360.141 585.573 359.048C585.652 358.482 592.203 396.883 592.203 396.883Z" fill="#A36957"/>
<path d="M584.847 350.535C584.808 350.534 584.771 350.92 584.737 351.621C584.7 352.321 584.692 353.337 584.76 354.592C584.784 355.22 584.85 355.906 584.931 356.641C585.025 357.374 585.125 358.16 585.295 358.975C585.606 360.61 586.086 362.38 586.697 364.195C587.943 367.819 589.317 370.99 590.293 373.291C590.756 374.34 591.153 375.242 591.487 376C591.78 376.635 591.959 376.98 591.996 376.965C592.033 376.95 591.923 376.578 591.693 375.917C591.463 375.256 591.113 374.307 590.667 373.14C589.787 370.801 588.472 367.606 587.238 364.014C586.633 362.216 586.145 360.477 585.811 358.872C585.63 358.072 585.514 357.301 585.401 356.58C585.301 355.857 585.213 355.183 585.164 354.563C585.046 353.326 584.992 352.318 584.961 351.621C584.924 350.922 584.886 350.535 584.847 350.535Z" fill="#A36957"/>
<path d="M575.729 435.91L575.722 434.299L593.292 433.533L593.34 440.178L592.256 440.251C587.433 440.533 567.714 441.347 564.487 440.379C560.886 439.3 575.729 435.91 575.729 435.91Z" fill="#455A64"/>
<path d="M593.584 439.776C593.584 439.783 593.481 439.795 593.284 439.81C593.025 439.827 592.741 439.845 592.421 439.865C591.558 439.905 590.497 439.955 589.244 440.013C586.561 440.119 582.852 440.217 578.755 440.235C574.656 440.252 570.946 440.187 568.263 440.105C567.01 440.058 565.949 440.017 565.085 439.984C564.765 439.966 564.481 439.951 564.222 439.936C564.025 439.923 563.921 439.912 563.922 439.905C563.922 439.898 564.026 439.894 564.224 439.893C564.484 439.895 564.768 439.898 565.089 439.901C565.953 439.915 567.014 439.933 568.267 439.954C570.951 439.998 574.659 440.04 578.755 440.022C582.85 440.004 586.557 439.93 589.24 439.862C590.493 439.83 591.555 439.803 592.418 439.781C592.739 439.775 593.023 439.77 593.283 439.766C593.48 439.766 593.584 439.769 593.584 439.776Z" fill="#263238"/>
<path d="M570.035 440.342C569.97 440.35 569.918 439.592 569.436 438.828C568.967 438.055 568.312 437.67 568.349 437.616C568.361 437.563 569.112 437.89 569.617 438.717C570.131 439.538 570.088 440.355 570.035 440.342Z" fill="#263238"/>
<path d="M575.185 437.707C575.136 437.738 574.888 437.439 574.632 437.038C574.375 436.637 574.208 436.287 574.257 436.255C574.306 436.223 574.554 436.523 574.811 436.924C575.066 437.325 575.234 437.676 575.185 437.707Z" fill="#263238"/>
<path d="M576.597 436.953C576.558 436.997 576.282 436.814 575.979 436.544C575.677 436.274 575.464 436.021 575.502 435.977C575.541 435.933 575.817 436.116 576.12 436.386C576.423 436.656 576.636 436.91 576.597 436.953Z" fill="#263238"/>
<path d="M577.485 435.3C577.486 435.359 577.078 435.412 576.573 435.42C576.069 435.427 575.659 435.386 575.658 435.328C575.657 435.269 576.065 435.216 576.57 435.208C577.075 435.201 577.484 435.242 577.485 435.3Z" fill="#263238"/>
<path d="M577.789 434.136C577.809 434.188 577.365 434.39 576.772 434.436C576.18 434.485 575.709 434.354 575.721 434.3C575.731 434.24 576.193 434.272 576.756 434.225C577.318 434.182 577.77 434.078 577.789 434.136Z" fill="#263238"/>
<path d="M574.586 436.184C574.588 436.208 574.157 436.262 573.463 436.181C573.117 436.141 572.707 436.06 572.266 435.922C572.047 435.845 571.818 435.787 571.581 435.642C571.47 435.568 571.346 435.464 571.302 435.294C571.255 435.126 571.344 434.936 571.471 434.844C572.543 434.284 573.62 434.884 574.021 435.437C574.241 435.719 574.343 435.995 574.39 436.185C574.436 436.377 574.433 436.487 574.42 436.488C574.38 436.503 574.342 436.046 573.905 435.532C573.689 435.28 573.363 435.035 572.943 434.912C572.546 434.796 571.981 434.766 571.604 435.008C571.426 435.141 571.496 435.35 571.695 435.468C571.88 435.587 572.12 435.658 572.327 435.735C572.753 435.88 573.149 435.973 573.485 436.032C574.158 436.15 574.586 436.15 574.586 436.184Z" fill="#263238"/>
<path d="M574.294 436.241C574.278 436.253 574.111 435.967 574.162 435.462C574.188 435.214 574.278 434.919 574.466 434.64C574.663 434.39 574.917 434.045 575.399 434.064C575.66 434.097 575.788 434.392 575.747 434.581C575.727 434.778 575.64 434.947 575.558 435.084C575.392 435.365 575.204 435.593 575.03 435.766C574.679 436.111 574.401 436.244 574.389 436.223C574.369 436.196 574.612 436.021 574.92 435.664C575.073 435.486 575.24 435.26 575.388 434.988C575.541 434.75 575.645 434.323 575.363 434.273C575.082 434.247 574.796 434.528 574.625 434.753C574.449 434.997 574.352 435.259 574.31 435.485C574.226 435.941 574.332 436.233 574.294 436.241Z" fill="#263238"/>
<path d="M593.211 434.995C593.207 435.034 592.71 434.949 591.921 435.045C591.139 435.135 590.051 435.46 589.107 436.217C588.164 436.976 587.612 437.967 587.355 438.712C587.091 439.462 587.067 439.966 587.027 439.961C587.014 439.96 587.007 439.835 587.025 439.608C587.042 439.382 587.095 439.055 587.212 438.665C587.438 437.888 587.99 436.843 588.974 436.052C589.958 435.263 591.098 434.95 591.905 434.897C592.312 434.867 592.642 434.886 592.866 434.918C593.092 434.948 593.213 434.982 593.211 434.995Z" fill="#263238"/>
<path d="M584.797 438.384C584.804 438.439 583.663 438.621 582.243 438.627C580.822 438.637 579.682 438.467 579.688 438.412C579.694 438.351 580.835 438.425 582.243 438.415C583.65 438.409 584.79 438.323 584.797 438.384Z" fill="#263238"/>
<path d="M588.222 438.347C588.265 438.39 588.129 438.589 588.014 438.852C587.895 439.113 587.836 439.347 587.775 439.343C587.718 439.343 587.684 439.067 587.82 438.765C587.955 438.462 588.184 438.305 588.222 438.347Z" fill="#263238"/>
<path d="M589.507 436.735C589.549 436.776 589.437 436.958 589.257 437.142C589.077 437.326 588.897 437.442 588.855 437.401C588.813 437.36 588.925 437.178 589.106 436.994C589.285 436.81 589.465 436.694 589.507 436.735Z" fill="#263238"/>
<path d="M591.35 435.994C591.338 436.053 591.106 436.052 590.849 436.144C590.59 436.229 590.408 436.373 590.362 436.333C590.315 436.301 590.461 436.052 590.78 435.944C591.099 435.833 591.367 435.94 591.35 435.994Z" fill="#263238"/>
<path d="M592.664 435.643C592.685 435.698 592.585 435.788 592.44 435.844C592.295 435.901 592.161 435.903 592.14 435.848C592.119 435.794 592.219 435.703 592.364 435.647C592.509 435.591 592.642 435.589 592.664 435.643Z" fill="#263238"/>
<path d="M616.893 434.36L616.226 432.893L631.941 424.998L634.707 431.04L633.748 431.55C629.464 433.783 611.808 442.602 608.468 443.042C604.742 443.532 616.893 434.36 616.893 434.36Z" fill="#455A64"/>
<path d="M634.765 430.573C634.768 430.58 634.679 430.632 634.505 430.727C634.276 430.848 634.024 430.981 633.74 431.131C632.969 431.521 632.021 432.001 630.903 432.568C628.499 433.764 625.155 435.372 621.425 437.067C617.693 438.762 614.282 440.222 611.8 441.246C610.638 441.716 609.653 442.114 608.852 442.438C608.553 442.553 608.287 442.655 608.045 442.748C607.86 442.817 607.761 442.85 607.758 442.843C607.755 442.836 607.848 442.79 608.029 442.709C608.267 442.605 608.527 442.491 608.821 442.362C609.615 442.021 610.591 441.603 611.742 441.109C614.209 440.05 617.608 438.569 621.338 436.875C625.066 435.181 628.418 433.595 630.838 432.434C631.968 431.892 632.925 431.432 633.704 431.058C633.994 430.921 634.251 430.8 634.486 430.69C634.665 430.607 634.761 430.566 634.765 430.573Z" fill="#263238"/>
<path d="M613.515 440.735C613.46 440.769 613.102 440.099 612.349 439.599C611.605 439.086 610.848 439.003 610.859 438.938C610.849 438.885 611.668 438.875 612.468 439.423C613.273 439.962 613.568 440.725 613.515 440.735Z" fill="#263238"/>
<path d="M617.132 436.222C617.1 436.271 616.751 436.099 616.353 435.839C615.955 435.578 615.658 435.327 615.69 435.279C615.722 435.23 616.071 435.402 616.469 435.662C616.867 435.922 617.164 436.173 617.132 436.222Z" fill="#263238"/>
<path d="M618.114 434.956C618.096 435.012 617.769 434.958 617.383 434.836C616.997 434.714 616.698 434.57 616.716 434.514C616.734 434.458 617.061 434.512 617.447 434.634C617.833 434.756 618.131 434.9 618.114 434.956Z" fill="#263238"/>
<path d="M618.247 433.084C618.272 433.137 617.921 433.353 617.465 433.567C617.008 433.78 616.617 433.91 616.593 433.857C616.568 433.804 616.919 433.588 617.376 433.375C617.831 433.161 618.222 433.031 618.247 433.084Z" fill="#263238"/>
<path d="M618.045 431.897C618.084 431.936 617.762 432.303 617.24 432.587C616.719 432.874 616.237 432.948 616.225 432.893C616.209 432.834 616.644 432.674 617.138 432.401C617.635 432.132 618.004 431.852 618.045 431.897Z" fill="#263238"/>
<path d="M615.963 435.078C615.974 435.099 615.603 435.325 614.937 435.535C614.605 435.64 614.198 435.734 613.739 435.789C613.507 435.808 613.275 435.85 612.999 435.815C612.867 435.793 612.712 435.749 612.602 435.612C612.49 435.478 612.494 435.269 612.572 435.133C613.32 434.183 614.549 434.289 615.141 434.63C615.458 434.797 615.663 435.007 615.784 435.161C615.904 435.317 615.946 435.419 615.936 435.425C615.906 435.455 615.684 435.054 615.074 434.764C614.774 434.622 614.376 434.532 613.943 434.592C613.533 434.649 613.006 434.853 612.761 435.228C612.653 435.422 612.803 435.584 613.032 435.61C613.25 435.642 613.497 435.61 613.718 435.595C614.166 435.553 614.565 435.476 614.896 435.391C615.558 435.222 615.949 435.046 615.963 435.078Z" fill="#263238"/>
<path d="M615.72 435.249C615.711 435.267 615.441 435.074 615.28 434.592C615.202 434.355 615.164 434.049 615.22 433.718C615.298 433.409 615.388 432.991 615.835 432.81C616.086 432.733 616.672 433.237 616.712 433.427C616.775 433.615 616.416 433.518 616.397 433.676C616.361 434.001 616.283 434.285 616.195 434.514C616.016 434.973 615.817 435.208 615.797 435.194C615.768 435.177 615.918 434.918 616.053 434.466C616.12 434.24 616.179 433.966 616.203 433.658C616.245 433.378 616.165 432.946 615.888 433.016C615.621 433.107 615.475 433.481 615.411 433.756C615.351 434.05 615.369 434.329 615.423 434.553C615.535 435.004 615.751 435.226 615.72 435.249Z" fill="#263238"/>
<path d="M632.466 426.364C632.479 426.402 631.99 426.527 631.309 426.938C630.632 427.34 629.773 428.082 629.222 429.159C628.672 430.237 628.575 431.368 628.646 432.152C628.712 432.945 628.897 433.414 628.859 433.426C628.847 433.431 628.789 433.319 628.713 433.105C628.636 432.892 628.551 432.572 628.497 432.168C628.385 431.367 628.46 430.187 629.034 429.063C629.609 427.94 630.52 427.188 631.235 426.808C631.594 426.614 631.903 426.496 632.121 426.433C632.338 426.371 632.462 426.352 632.466 426.364Z" fill="#263238"/>
<path d="M626.179 432.903C626.208 432.95 625.243 433.583 623.95 434.17C622.658 434.761 621.547 435.073 621.53 435.021C621.51 434.963 622.582 434.563 623.862 433.978C625.143 433.396 626.148 432.849 626.179 432.903Z" fill="#263238"/>
<path d="M629.287 431.466C629.343 431.487 629.302 431.725 629.304 432.012C629.302 432.299 629.344 432.536 629.287 432.558C629.235 432.581 629.091 432.344 629.092 432.012C629.091 431.68 629.235 431.443 629.287 431.466Z" fill="#263238"/>
<path d="M629.799 429.469C629.854 429.489 629.826 429.701 629.737 429.943C629.648 430.185 629.531 430.364 629.477 430.344C629.422 430.324 629.45 430.112 629.539 429.87C629.628 429.629 629.745 429.449 629.799 429.469Z" fill="#263238"/>
<path d="M631.179 428.038C631.192 428.097 630.98 428.191 630.783 428.379C630.582 428.563 630.474 428.768 630.416 428.751C630.36 428.741 630.391 428.454 630.638 428.224C630.884 427.993 631.173 427.981 631.179 428.038Z" fill="#263238"/>
<path d="M632.234 427.179C632.276 427.22 632.221 427.343 632.113 427.454C632.004 427.565 631.882 427.622 631.84 427.581C631.798 427.54 631.853 427.417 631.961 427.306C632.07 427.195 632.192 427.138 632.234 427.179Z" fill="#263238"/>
<path d="M612.563 223.635L609.637 187.938L624.665 188.206C624.665 188.206 625.361 182.943 623.147 171.397C621.789 164.317 617.074 159.975 611.786 157.395L611.787 157.3L611.328 157.18C604.603 154.032 597.563 153.588 597.563 153.588L579.116 153.801C579.116 153.801 565.024 152.043 557.224 162.089C554.219 165.959 544.922 192.444 544.922 192.444L567.064 203.107L564.956 188.42C564.956 188.42 565.375 199.069 566.734 202.443C567.491 204.323 569.683 210.159 569.683 210.159L569.397 227.774L612.563 223.635Z" fill="url(#paint5_linear_4460_210)"/>
<path d="M602.386 182.756L599.648 194.422H625.479L623.78 174.864L602.386 182.756Z" fill="#E9891B"/>
<path d="M625.478 194.422C625.482 194.345 624.176 194.208 622.059 194.084C619.942 193.96 617.013 193.855 613.775 193.87C610.537 193.886 607.607 194.026 605.492 194.194C603.377 194.361 602.076 194.54 602.082 194.615C602.088 194.697 603.399 194.66 605.514 194.596C607.629 194.531 610.55 194.455 613.779 194.439C617.006 194.425 619.929 194.465 622.046 194.486C624.162 194.508 625.474 194.502 625.478 194.422Z" fill="#263238"/>
<path d="M601.272 174.768C601.193 174.771 601.166 175.905 601.186 177.735C601.206 179.566 601.272 182.092 601.38 184.882C601.488 187.672 601.618 190.197 601.741 192.024C601.863 193.85 601.979 194.978 602.057 194.975C602.136 194.972 602.163 193.838 602.143 192.008C602.124 190.178 602.057 187.65 601.949 184.86C601.841 182.07 601.711 179.546 601.588 177.719C601.466 175.894 601.351 174.765 601.272 174.768Z" fill="#263238"/>
<g opacity="0.3">
<path d="M577.768 184.872C577.768 184.872 583.51 227.44 599.649 226.313C599.649 226.313 606.915 226.227 609.252 221.397V219.496L577.768 184.872Z" fill="black"/>
</g>
<g opacity="0.3">
<path d="M601.273 177.277L598.184 198.145L600.184 201.807L603.477 194.647L602.083 194.614L601.273 177.277Z" fill="black"/>
</g>
<path d="M569.685 210.161C569.651 210.173 569.497 209.817 569.249 209.164C568.998 208.512 568.665 207.558 568.279 206.37C567.508 203.995 566.555 200.669 565.809 196.925C565.067 193.178 564.703 189.732 564.585 187.234C564.525 185.985 564.506 184.973 564.525 184.274C564.539 183.575 564.563 183.189 564.599 183.189C564.682 183.188 564.738 184.73 564.952 187.209C565.164 189.688 565.582 193.101 566.32 196.824C567.061 200.545 567.953 203.868 568.632 206.264C568.949 207.375 569.22 208.322 569.442 209.102C569.63 209.772 569.719 210.149 569.685 210.161Z" fill="#263238"/>
<path d="M576.212 222.393C576.074 222.435 575.675 221.516 575.32 220.342C574.965 219.167 574.788 218.182 574.926 218.14C575.064 218.098 575.463 219.017 575.818 220.191C576.173 221.365 576.35 222.351 576.212 222.393Z" fill="#263238"/>
<path d="M578.441 222.23C578.308 222.264 577.872 220.886 577.851 219.118C577.821 217.35 578.216 215.96 578.349 215.99C578.497 216.017 578.341 217.404 578.371 219.11C578.391 220.816 578.589 222.199 578.441 222.23Z" fill="#263238"/>
<path d="M567.515 203.596C567.451 203.725 562.298 201.28 556.007 198.136C549.714 194.991 544.666 192.339 544.731 192.21C544.795 192.081 549.947 194.526 556.24 197.67C562.53 200.814 567.579 203.467 567.515 203.596Z" fill="#263238"/>
<path d="M576.596 157.253C576.711 152.194 576.739 146.866 576.739 146.866C576.739 146.866 570.25 145.616 569.119 137.078C568.041 128.936 571.057 109.831 571.057 109.831C580.535 106.248 590.386 109.496 596.88 117.176L595.268 158.25C595.081 163.018 590.832 166.655 585.728 166.416C580.572 166.174 576.486 162.073 576.596 157.253Z" fill="#B78876"/>
<path d="M570.564 125.1C570.529 125.675 570.987 126.179 571.587 126.227C572.186 126.275 572.701 125.848 572.736 125.273C572.771 124.698 572.313 124.193 571.714 124.145C571.114 124.097 570.599 124.525 570.564 125.1Z" fill="#263238"/>
<path d="M570.159 123.667C570.291 123.813 571.133 123.223 572.306 123.256C573.479 123.272 574.324 123.898 574.455 123.758C574.519 123.696 574.388 123.436 574.02 123.153C573.658 122.872 573.035 122.591 572.304 122.575C571.573 122.56 570.951 122.813 570.591 123.08C570.223 123.348 570.094 123.602 570.159 123.667Z" fill="#263238"/>
<path d="M582.471 125.841C582.436 126.416 582.894 126.921 583.494 126.969C584.093 127.017 584.608 126.59 584.643 126.015C584.678 125.44 584.22 124.935 583.621 124.887C583.021 124.838 582.506 125.266 582.471 125.841Z" fill="#263238"/>
<path d="M582.391 124.409C582.523 124.555 583.366 123.965 584.538 123.998C585.71 124.015 586.556 124.641 586.687 124.5C586.751 124.438 586.621 124.178 586.252 123.895C585.89 123.614 585.267 123.333 584.536 123.317C583.805 123.302 583.183 123.555 582.823 123.822C582.456 124.09 582.327 124.344 582.391 124.409Z" fill="#263238"/>
<path d="M577.907 133.001C577.914 132.934 577.188 132.79 576.01 132.608C575.711 132.569 575.429 132.503 575.384 132.297C575.319 132.079 575.453 131.759 575.607 131.414C575.907 130.696 576.222 129.944 576.552 129.155C577.866 125.938 578.826 123.29 578.696 123.238C578.566 123.186 577.395 125.751 576.081 128.968C575.764 129.761 575.461 130.518 575.173 131.241C575.051 131.579 574.846 131.96 574.987 132.413C575.062 132.639 575.278 132.807 575.468 132.864C575.659 132.928 575.827 132.935 575.975 132.948C577.163 133.044 577.901 133.068 577.907 133.001Z" fill="#263238"/>
<path d="M576.738 146.866C576.738 146.866 582.449 147.382 588.203 144.122C588.203 144.122 585.29 149.892 576.8 148.876L576.738 146.866Z" fill="#A36957"/>
<path d="M586.146 121.024C585.905 121.391 585.013 121.228 584.013 121.048C583.017 120.847 582.127 120.67 582.038 120.24C581.939 119.828 582.972 119.257 584.306 119.513C585.64 119.767 586.39 120.677 586.146 121.024Z" fill="#263238"/>
<path d="M574.48 119.302C574.389 119.73 573.434 119.886 572.332 119.942C571.229 119.987 570.263 119.919 570.134 119.502C570.002 119.098 570.934 118.44 572.26 118.382C573.585 118.318 574.574 118.887 574.48 119.302Z" fill="#263238"/>
<path d="M577.926 135.81C577.679 135.741 577.401 135.882 577.277 136.107C577.129 136.374 577.197 136.742 577.431 136.939C577.664 137.136 578.038 137.141 578.277 136.95C578.516 136.76 578.594 136.394 578.454 136.123C578.314 135.852 577.971 135.704 577.677 135.788" fill="#A36957"/>
<path d="M578.201 135.926C578.254 135.879 578.013 135.591 577.501 135.703C577.264 135.755 576.954 135.968 576.86 136.332C576.766 136.674 576.851 137.117 577.213 137.395C577.588 137.659 578.04 137.605 578.338 137.402C578.658 137.192 578.748 136.808 578.698 136.568C578.595 136.041 578.205 135.957 578.194 136.03C578.15 136.096 578.33 136.279 578.295 136.591C578.278 136.744 578.205 136.886 578.057 136.958C577.912 137.037 577.681 137.037 577.55 136.936C577.413 136.838 577.342 136.62 577.37 136.452C577.391 136.284 577.503 136.159 577.639 136.082C577.917 135.924 578.164 135.998 578.201 135.926Z" fill="#263238"/>
<path d="M592.949 127.208C591.937 129.552 589.469 131.358 589.811 133.888C590.032 135.521 591.08 137.044 590.876 138.68C590.62 140.734 588.486 142.158 588.184 144.206C587.814 146.718 590.257 148.67 591.233 151.014C592.654 154.427 590.836 158.266 590.793 161.963C590.728 167.626 595.543 172.916 601.187 173.381C603.47 173.569 606.042 172.88 607.225 170.919C608.202 169.301 608.006 167.245 608.592 165.448C609.464 162.772 612.015 160.813 612.553 158.05C613.533 153.013 607.446 148.845 607.846 143.729C608.017 141.543 609.367 139.636 609.94 137.52C610.692 134.748 610.003 131.626 608.154 129.428C606.652 127.641 604.472 126.466 603.193 124.514C601.742 122.3 601.692 119.493 601.145 116.903C599.812 110.592 595.072 105.11 589.02 102.878C582.968 100.646 575.804 101.738 570.692 105.671C570.692 105.671 569.237 112.262 576.003 113.364C582.768 114.466 585.904 113.194 586.667 115.906C586.667 115.906 585.896 119.073 588.693 122.099C591.491 125.127 594.12 124.494 592.949 127.208Z" fill="#263238"/>
<path d="M603.745 172.92C603.742 172.938 603.531 172.915 603.128 172.856C602.726 172.793 602.136 172.66 601.407 172.392C599.963 171.864 597.916 170.714 596.172 168.517C595.306 167.428 594.495 166.108 593.947 164.556C593.387 163.013 593.067 161.264 593.038 159.422C592.995 157.579 593.256 155.646 593.759 153.712C594.01 152.744 594.337 151.778 594.716 150.819C595.09 149.856 595.55 148.928 595.814 147.946C596.099 146.967 596.06 145.967 595.804 145.013C595.543 144.059 595.099 143.162 594.667 142.275C594.232 141.389 593.788 140.505 593.502 139.565C593.211 138.633 593.102 137.628 593.292 136.691C593.691 134.807 594.835 133.413 595.51 131.982C596.224 130.565 596.448 129.067 596.415 127.723C596.294 124.999 595.133 122.985 594.185 121.824C593.197 120.662 592.448 120.219 592.486 120.17C592.486 120.17 593.279 120.545 594.339 121.692C595.355 122.838 596.608 124.88 596.783 127.707C596.843 129.1 596.629 130.678 595.899 132.171C595.209 133.654 594.105 135.058 593.764 136.782C593.413 138.519 594.235 140.308 595.126 142.049C595.562 142.937 596.024 143.855 596.306 144.876C596.586 145.89 596.627 147.036 596.319 148.08C596.035 149.129 595.565 150.069 595.2 151.009C594.826 151.949 594.504 152.894 594.255 153.841C593.756 155.733 593.492 157.618 593.521 159.413C593.533 163.018 594.77 166.169 596.465 168.287C598.126 170.455 600.089 171.625 601.485 172.202C602.896 172.775 603.757 172.861 603.745 172.92Z" fill="#455A64"/>
<path d="M602.749 122.459C602.752 122.492 602.225 122.587 601.259 122.681C600.297 122.76 598.876 122.872 597.14 122.573C595.445 122.263 593.301 121.431 591.943 119.42C591.276 118.411 591.012 117.19 590.578 116.063C590.17 114.923 589.381 113.936 588.3 113.252C586.112 111.865 583.538 111.695 581.287 111.421C579.024 111.166 576.899 110.686 575.458 109.606C574.007 108.573 573.263 107.233 573.072 106.267C572.963 105.783 572.972 105.395 572.994 105.139C573.03 104.882 573.058 104.751 573.076 104.754C573.14 104.755 573.007 105.304 573.269 106.217C573.511 107.121 574.262 108.357 575.669 109.304C577.056 110.287 579.089 110.716 581.343 110.945C583.575 111.197 586.24 111.336 588.583 112.815C589.74 113.537 590.635 114.669 591.054 115.88C591.499 117.07 591.748 118.241 592.346 119.161C593.564 121.022 595.582 121.873 597.21 122.213C598.88 122.55 600.287 122.498 601.246 122.481C602.21 122.447 602.745 122.421 602.749 122.459Z" fill="#455A64"/>
<path d="M600.267 114.315C600.272 114.34 599.863 114.468 599.095 114.487C598.333 114.508 597.193 114.373 595.938 113.776C595.313 113.479 594.671 113.053 594.08 112.484C593.48 111.918 592.989 111.186 592.529 110.414C591.627 108.893 590.759 107.017 588.889 106.242C587.057 105.456 585.039 105.631 583.286 105.75C581.516 105.924 579.857 105.976 578.504 105.71C577.142 105.473 576.12 104.909 575.553 104.387C575.267 104.129 575.072 103.898 574.965 103.727C574.853 103.559 574.802 103.467 574.817 103.456C574.858 103.424 575.097 103.777 575.682 104.23C576.264 104.681 577.248 105.164 578.565 105.347C579.882 105.557 581.467 105.474 583.245 105.272C585.007 105.133 587.085 104.911 589.099 105.766C590.096 106.189 590.909 106.938 591.487 107.749C592.076 108.56 592.498 109.407 592.943 110.172C593.384 110.938 593.837 111.637 594.384 112.177C594.925 112.724 595.519 113.144 596.103 113.447C597.275 114.056 598.361 114.244 599.099 114.284C599.844 114.328 600.261 114.27 600.267 114.315Z" fill="#455A64"/>
<path d="M606.729 170.762C606.678 170.739 606.996 170.095 607.365 168.864C607.731 167.637 608.095 165.793 608.032 163.504C607.954 161.231 607.407 158.481 605.899 155.868C605.168 154.558 604.056 153.392 603.151 151.953C602.701 151.235 602.314 150.43 602.144 149.539C601.977 148.647 602.079 147.7 602.365 146.84C602.926 145.114 603.93 143.66 604.146 142.073C604.414 140.481 603.61 139.029 602.849 137.737C602.464 137.079 602.078 136.429 601.778 135.749C601.479 135.069 601.288 134.353 601.213 133.661C601.061 132.271 601.223 130.994 601.326 129.848C601.615 127.564 601.403 125.687 600.852 124.534C600.319 123.367 599.62 123.017 599.671 122.969C599.676 122.962 599.717 122.981 599.792 123.027C599.866 123.075 599.983 123.138 600.111 123.255C600.378 123.472 600.734 123.857 601.034 124.446C601.667 125.613 601.938 127.576 601.692 129.88C601.611 131.031 601.476 132.292 601.64 133.609C601.773 134.938 602.458 136.192 603.261 137.493C603.65 138.151 604.061 138.838 604.349 139.618C604.645 140.391 604.78 141.275 604.65 142.143C604.407 143.892 603.376 145.372 602.86 146.998C602.591 147.81 602.505 148.644 602.652 149.446C602.803 150.248 603.155 150.995 603.583 151.685C604.441 153.067 605.558 154.257 606.313 155.629C607.848 158.344 608.365 161.173 608.398 163.496C608.416 165.835 607.987 167.702 607.557 168.926C607.332 169.537 607.144 170.005 606.981 170.307C606.832 170.613 606.745 170.77 606.729 170.762Z" fill="#455A64"/>
<path d="M565.995 357.088C565.995 357.088 559.26 293.246 558.873 269.655C558.486 246.065 569.479 222.789 569.479 222.789L612.562 220.967C612.562 220.967 621.078 244.903 621.23 254.957C621.526 274.496 616.039 293.79 616.671 309.29L618.111 357.088" fill="#263238"/>
<path d="M619.554 278.603C619.563 278.619 619.319 278.803 618.851 279.136C618.731 279.221 618.6 279.313 618.458 279.413C618.323 279.527 618.192 279.671 618.041 279.816C617.739 280.106 617.386 280.436 617.081 280.891C615.689 282.595 614.675 285.639 613.71 289.436C613.179 291.322 612.64 293.438 611.529 295.51C611.231 296.015 610.964 296.551 610.572 297.022C610.385 297.262 610.215 297.519 610.009 297.75L609.346 298.413C608.447 299.298 607.307 299.965 606.106 300.492C603.694 301.549 600.972 302.051 598.485 303.298C595.982 304.517 594.105 306.88 592.955 309.601C591.742 312.31 591.006 315.155 589.994 317.811C589 320.446 587.646 323.012 585.497 324.632C583.365 326.311 580.729 326.695 578.447 326.842C576.127 326.977 573.979 326.91 572.053 327.202C570.134 327.468 568.433 328.076 567.23 329.022C566.024 329.971 565.32 331.159 564.989 332.177C564.646 333.207 564.708 334.076 564.822 334.629C564.933 335.191 565.091 335.459 565.056 335.474C565.056 335.474 564.868 335.222 564.72 334.654C564.57 334.095 564.471 333.195 564.795 332.118C565.109 331.053 565.809 329.807 567.048 328.795C568.292 327.782 570.04 327.135 571.998 326.838C573.96 326.518 576.132 326.564 578.418 326.411C580.678 326.247 583.201 325.851 585.206 324.251C587.236 322.707 588.542 320.239 589.518 317.631C590.513 315.006 591.244 312.157 592.481 309.388C593.642 306.619 595.632 304.106 598.255 302.844C600.841 301.56 603.565 301.074 605.916 300.052C607.088 299.545 608.175 298.915 609.035 298.078L609.672 297.451C609.87 297.232 610.035 296.985 610.216 296.757C610.595 296.31 610.857 295.791 611.15 295.305C612.246 293.305 612.804 291.213 613.356 289.338C614.363 285.561 615.45 282.468 616.922 280.766C617.246 280.313 617.617 279.986 617.937 279.702C618.096 279.561 618.236 279.421 618.378 279.311C618.527 279.217 618.664 279.13 618.791 279.05C619.285 278.74 619.546 278.587 619.554 278.603Z" fill="#FAFAFA"/>
<path d="M619.821 249.059C619.839 249.058 619.858 249.351 619.877 249.914C619.885 250.476 619.818 251.31 619.578 252.357C619.078 254.439 617.557 257.297 614.711 259.883C613.304 261.182 611.606 262.437 609.665 263.568C607.735 264.714 605.605 265.804 603.423 267.037C601.249 268.273 599.007 269.671 597.037 271.527C595.041 273.361 593.546 275.772 592.2 278.324C590.84 280.873 589.636 283.467 588.005 285.713C587.196 286.835 586.282 287.86 585.271 288.737C584.254 289.608 583.145 290.315 582.019 290.903C579.759 292.076 577.457 292.801 575.324 293.469C573.186 294.13 571.193 294.715 569.449 295.446C567.703 296.166 566.191 296.981 564.968 297.846C563.745 298.712 562.815 299.619 562.155 300.44C560.823 302.09 560.543 303.285 560.467 303.245C560.45 303.239 560.546 302.961 560.745 302.434C560.976 301.924 561.334 301.163 561.995 300.315C562.641 299.46 563.57 298.513 564.797 297.61C566.024 296.708 567.547 295.858 569.305 295.107C571.062 294.345 573.067 293.736 575.193 293.058C577.316 292.374 579.591 291.637 581.794 290.479C582.892 289.899 583.965 289.206 584.945 288.361C585.919 287.509 586.801 286.515 587.589 285.416C589.176 283.219 590.37 280.645 591.738 278.08C593.088 275.516 594.627 273.037 596.684 271.156C598.709 269.259 600.991 267.851 603.184 266.619C605.386 265.391 607.518 264.317 609.443 263.196C611.375 262.092 613.056 260.875 614.459 259.611C617.293 257.098 618.826 254.333 619.379 252.305C619.92 250.258 619.741 249.053 619.821 249.059Z" fill="#FAFAFA"/>
<path d="M559.092 273.036C559.084 273.039 559.054 272.974 559.005 272.842C558.962 272.709 558.87 272.516 558.811 272.247C558.689 271.713 558.613 270.869 558.911 269.85C559.467 267.814 561.679 265.28 565.244 264.011C567.017 263.402 569.029 263.034 571.126 262.485C573.198 261.927 575.456 261.145 577.142 259.412C577.979 258.557 578.687 257.539 579.276 256.42C579.849 255.291 580.323 254.079 580.769 252.828C581.666 250.334 582.418 247.624 583.94 245.16C585.452 242.677 587.914 240.952 590.463 240.088C593.005 239.154 595.569 238.74 597.948 238.191C600.334 237.672 602.564 237 604.457 235.975C606.323 234.915 607.809 233.504 608.862 232.008C611.019 229.009 611.584 225.937 611.661 223.907C611.708 221.844 611.38 220.721 611.448 220.711C611.448 220.711 611.847 221.815 611.863 223.911C611.847 225.972 611.333 229.118 609.162 232.221C608.101 233.768 606.589 235.239 604.668 236.352C602.727 237.425 600.451 238.124 598.056 238.659C595.665 239.223 593.117 239.648 590.642 240.566C588.152 241.423 585.839 243.056 584.382 245.437C582.913 247.81 582.158 250.49 581.251 253C580.798 254.26 580.313 255.492 579.718 256.651C579.107 257.802 578.364 258.862 577.481 259.754C575.69 261.57 573.331 262.358 571.236 262.904C569.11 263.441 567.109 263.785 565.361 264.361C561.893 265.545 559.693 267.972 559.106 269.91C558.79 270.882 558.829 271.697 558.915 272.227C559.026 272.753 559.115 273.028 559.092 273.036Z" fill="#FAFAFA"/>
<path d="M616.116 327.019C616.134 327.017 616.157 327.232 616.185 327.647C616.209 328.06 616.176 328.679 616.001 329.452C615.648 330.992 614.458 333.1 612.221 334.855C611.12 335.743 609.787 336.558 608.256 337.21C606.729 337.864 605.041 338.382 603.278 338.932C601.516 339.482 599.667 340.057 597.87 340.907C596.059 341.736 594.388 342.949 592.948 344.497C591.489 346.025 590.23 347.694 588.834 349.168C587.444 350.651 585.864 351.872 584.225 352.774C580.934 354.592 577.522 355.215 574.715 355.247C571.886 355.278 569.642 354.684 568.169 354.159C567.426 353.9 566.874 353.641 566.508 353.447C566.138 353.263 565.949 353.158 565.957 353.142C565.965 353.126 566.17 353.199 566.551 353.351C566.928 353.513 567.489 353.74 568.233 353.967C569.709 354.427 571.931 354.955 574.707 354.878C577.462 354.8 580.794 354.149 583.989 352.354C585.583 351.46 587.103 350.274 588.46 348.817C589.828 347.365 591.081 345.696 592.569 344.136C594.034 342.558 595.795 341.282 597.649 340.445C599.495 339.581 601.368 339.011 603.135 338.473C604.903 337.936 606.583 337.436 608.087 336.812C609.589 336.193 610.903 335.415 611.992 334.566C614.204 332.888 615.399 330.883 615.804 329.401C616.2 327.902 616.044 327.017 616.116 327.019Z" fill="#FAFAFA"/>
<path d="M611.205 194.464L602.874 194.661C602.327 197.467 600.99 199.387 600.99 199.387C594.024 187.295 588.623 171.095 587.282 164.584C587.477 163.934 587.709 163.214 587.998 162.41C588.331 161.482 588.045 159.724 587.888 158.749C587.654 157.299 587.249 155.349 587.127 154.446C586.756 151.695 586.313 151.263 585.353 151.574C584.048 151.997 585.888 159.3 584.818 159.459C584.243 159.544 583.54 157.042 583.336 154.989C583.132 152.936 582.204 146.621 581.525 146.2C580.53 145.583 579.663 146.559 579.914 148.603C580.168 150.672 580.489 156.843 579.404 156.926C578.335 157.008 577.438 146.539 577.438 146.539C577.438 146.539 577.607 144.261 576.351 144.316C574.085 144.414 575.856 155.452 576.05 156.498C576.186 157.225 575.008 157.359 574.905 156.569C574.798 155.756 574.252 146.099 571.945 146.176C570.174 146.236 573.316 155.272 572.322 157.367C571.328 159.461 570.637 150.253 568.947 150.38C568.318 150.428 567.853 150.551 569.009 155.762C569.63 158.563 571.456 163.712 573.051 167.976C575.73 182.426 587.488 228.652 605.921 220.19C616.236 215.455 620.42 194.47 620.42 194.47L611.205 194.464Z" fill="#B78876"/>
<path d="M575.658 157.204C575.658 157.204 575.742 157.219 575.898 157.171C576.039 157.128 576.318 156.952 576.274 156.593C576.25 155.973 576.153 155.068 576.009 153.899C575.902 152.722 575.55 151.31 575.549 149.639C575.535 148.802 575.557 147.902 575.605 146.948C575.636 146.471 575.644 145.976 575.75 145.508C575.828 145.055 576.132 144.537 576.481 144.599L576.519 144.606L576.536 144.605C576.892 144.589 577.17 144.866 577.284 145.29C577.409 145.695 577.44 146.173 577.415 146.629L577.414 146.648L577.415 146.661C577.649 149.219 577.901 152.02 578.484 155.01C578.565 155.384 578.648 155.76 578.764 156.139C578.822 156.328 578.889 156.519 578.972 156.712C579.026 156.811 579.06 156.905 579.142 157.008C579.213 157.095 579.304 157.247 579.56 157.27C579.975 157.239 580.095 156.925 580.189 156.745C580.279 156.538 580.335 156.333 580.376 156.13C580.462 155.723 580.505 155.317 580.537 154.909C580.647 153.278 580.59 151.614 580.47 149.907C580.431 149.044 580.219 148.184 580.366 147.402C580.434 147.017 580.595 146.629 580.858 146.469C580.986 146.391 581.13 146.375 581.288 146.415C581.367 146.438 581.447 146.47 581.526 146.518C581.592 146.581 581.577 146.553 581.636 146.665C581.971 147.381 582.142 148.313 582.33 149.179C582.507 150.064 582.661 150.966 582.802 151.878C582.943 152.79 583.072 153.713 583.181 154.643C583.27 155.572 583.405 156.548 583.642 157.487C583.762 157.96 583.895 158.432 584.093 158.9C584.195 159.135 584.3 159.367 584.505 159.607C584.579 159.709 584.812 159.9 585.104 159.825C585.386 159.731 585.466 159.507 585.512 159.376C585.674 158.801 585.626 158.323 585.618 157.82C585.597 157.324 585.555 156.833 585.514 156.343C585.443 155.501 585.362 154.668 585.334 153.847C585.321 153.438 585.32 153.029 585.364 152.644C585.389 152.456 585.421 152.262 585.486 152.123C585.516 152.052 585.554 152 585.582 151.974C585.598 151.958 585.608 151.965 585.621 151.949L585.751 151.912C586.414 151.638 586.635 152.561 586.811 153.305C586.965 154.081 587.062 154.882 587.218 155.671C587.481 157.246 587.818 158.811 587.993 160.316C588.065 161.061 588.119 161.836 587.905 162.468C587.668 163.191 587.434 163.906 587.203 164.613L587.182 164.677L587.197 164.744C588.416 170.121 590.104 174.932 591.671 179.203C593.254 183.47 594.837 187.158 596.234 190.173C597.627 193.192 598.877 195.517 599.74 197.104C600.178 197.856 600.524 198.45 600.781 198.892C601.022 199.295 601.154 199.5 601.167 199.493C601.18 199.485 601.075 199.265 600.86 198.848C600.622 198.397 600.302 197.789 599.896 197.021C599.083 195.411 597.883 193.068 596.536 190.037C595.184 187.009 593.644 183.315 592.097 179.047C590.567 174.781 588.907 169.957 587.722 164.636L587.716 164.767C587.947 164.069 588.181 163.364 588.417 162.651C588.686 161.835 588.607 161.038 588.54 160.258C588.361 158.694 588.034 157.174 587.773 155.592C587.619 154.81 587.524 154.007 587.363 153.187C587.268 152.778 587.18 152.366 586.955 151.949C586.847 151.747 586.679 151.517 586.403 151.393C586.124 151.272 585.838 151.306 585.614 151.361L585.446 151.409C585.371 151.443 585.277 151.483 585.219 151.538C585.091 151.649 585.018 151.776 584.966 151.894C584.861 152.134 584.831 152.355 584.8 152.577C584.75 153.016 584.753 153.443 584.765 153.867C584.794 154.715 584.876 155.554 584.947 156.393C584.988 156.881 585.029 157.367 585.05 157.846C585.067 158.313 585.084 158.829 584.976 159.19C584.951 159.295 584.902 159.275 584.959 159.326L584.961 159.331C584.956 159.297 584.969 159.382 584.967 159.368L584.965 159.358C584.963 159.345 584.965 159.333 584.968 159.323C584.973 159.314 584.995 159.279 584.982 159.277C584.975 159.274 584.951 159.261 584.922 159.222C584.812 159.095 584.702 158.887 584.616 158.68C584.438 158.261 584.307 157.806 584.192 157.353C583.962 156.436 583.833 155.526 583.741 154.581C583.629 153.64 583.498 152.713 583.354 151.795C583.21 150.877 583.053 149.969 582.871 149.073C582.665 148.171 582.532 147.304 582.111 146.403C582.085 146.312 581.907 146.11 581.797 146.051C581.684 145.984 581.559 145.932 581.425 145.894C581.156 145.82 580.827 145.854 580.579 146.011C580.083 146.339 579.93 146.86 579.84 147.312C579.759 147.778 579.771 148.238 579.823 148.682C579.873 149.109 579.914 149.527 579.948 149.95C580.074 151.634 580.137 153.291 580.039 154.875C580.011 155.27 579.97 155.661 579.894 156.03C579.858 156.215 579.807 156.394 579.742 156.548C579.71 156.624 579.67 156.695 579.633 156.735C579.597 156.818 579.565 156.716 579.568 156.851C579.619 156.748 579.57 156.805 579.531 156.719C579.488 156.672 579.452 156.582 579.412 156.512C579.341 156.349 579.279 156.177 579.223 155.999C579.112 155.644 579.027 155.276 578.947 154.913C578.353 151.976 578.074 149.168 577.817 146.628V146.66C577.839 146.146 577.805 145.655 577.654 145.173C577.578 144.936 577.466 144.694 577.263 144.507C577.064 144.314 576.778 144.228 576.522 144.236L576.577 144.242C576.175 144.171 575.882 144.414 575.715 144.655C575.543 144.903 575.467 145.172 575.408 145.432C575.298 145.957 575.3 146.456 575.274 146.935C575.239 147.897 575.231 148.802 575.259 149.648C575.291 151.354 575.675 152.766 575.811 153.929C575.985 155.091 576.115 155.993 576.171 156.601C576.234 156.89 576.001 157.076 575.879 157.125C575.738 157.183 575.656 157.192 575.658 157.204Z" fill="#A36957"/>
<path d="M510.532 208.232C510.532 208.232 507.765 208.1 504.739 208.896C499.575 210.255 490.66 215.657 490.291 222.332H496.766C496.766 222.332 493.14 230.051 494.206 229.336C496.97 227.482 502.474 221.889 502.474 221.889L510.532 208.232Z" fill="#B78876"/>
<path d="M598.857 92.044C598.714 92.057 598.126 86.703 597.544 80.088C596.962 73.47 596.607 68.097 596.75 68.085C596.893 68.072 597.481 73.425 598.063 80.043C598.645 86.657 599 92.031 598.857 92.044Z" fill="#263238"/>
<path d="M627.265 68.411C627.382 68.494 623.007 74.844 617.495 82.591C611.981 90.341 607.417 96.554 607.299 96.471C607.182 96.388 611.556 90.039 617.07 82.289C622.582 74.542 627.147 68.328 627.265 68.411Z" fill="#263238"/>
<path d="M639.068 97.1881C639.097 97.3291 633.991 98.4971 627.666 99.7971C621.338 101.097 616.187 102.037 616.158 101.896C616.129 101.755 621.234 100.587 627.561 99.2871C633.887 97.9881 639.039 97.0481 639.068 97.1881Z" fill="#263238"/>
<path d="M298.959 234.544L263.598 416.343L258.969 440.142L495.032 438.977C505.626 438.925 515.015 429.518 518.424 415.542L560.283 243.905C562.87 233.295 557.193 222.26 549.15 222.269L310.227 222.52C304.952 222.527 300.34 227.449 298.959 234.544Z" fill="#E9891B"/>
<g opacity="0.5">
<path d="M298.959 234.544L263.598 416.343L258.969 440.142L495.032 438.977C505.626 438.925 515.015 429.518 518.424 415.542L560.283 243.905C562.87 233.295 557.193 222.26 549.15 222.269L310.227 222.52C304.952 222.527 300.34 227.449 298.959 234.544Z" fill="url(#paint6_linear_4460_210)"/>
</g>
<path d="M472.387 404.026L447.393 202.618C446.369 194.365 439.795 188.209 432.033 188.235L377.227 188.414C373.171 188.427 369.282 190.152 366.4 193.215L340.375 220.88L187.949 221.675C178.634 221.724 171.478 230.537 172.713 240.44L195.919 426.593C196.946 434.834 203.508 440.982 211.259 440.966L476.906 440.441C506.493 441.054 509.317 432.316 509.317 432.316C475.41 439.831 472.39 404.049 472.387 404.026Z" fill="url(#paint7_linear_4460_210)"/>
<g opacity="0.5">
<path d="M357.843 363.717L348.884 373.339L279.881 311.264L288.841 301.642L357.843 363.717Z" fill="white"/>
<path d="M345.128 299.509L355.03 308.416L292.595 375.473L282.693 366.565L345.128 299.509Z" fill="white"/>
</g>
<path d="M510.32 103.785C509.681 103.511 509.222 102.89 509.189 102.149L508.79 92.865C508.764 92.281 509.014 91.719 509.464 91.347C509.914 90.974 510.513 90.835 511.082 90.969C512.574 91.321 514.22 90.996 515.597 90.077C516.865 89.231 517.716 87.985 517.931 86.658C518.147 85.336 517.738 83.873 516.809 82.643C515.814 81.326 514.344 80.439 512.868 80.27C509.857 79.923 506.606 82.23 505.769 85.308C505.499 86.302 504.474 86.89 503.48 86.619C502.469 86.341 501.898 85.323 502.168 84.329C503.482 79.491 508.474 76.007 513.296 76.562C515.796 76.85 518.165 78.246 519.785 80.392C521.327 82.432 521.993 84.934 521.614 87.258C521.232 89.603 519.794 91.761 517.668 93.18C516.132 94.205 514.37 94.771 512.608 94.832L512.918 101.988C512.962 103.018 512.163 103.888 511.133 103.932C510.845 103.945 510.569 103.891 510.32 103.785Z" fill="#E9891B"/>
<path d="M513.056 107.577C513.114 108.418 512.479 109.147 511.638 109.204C510.797 109.262 510.068 108.627 510.01 107.786C509.952 106.945 510.587 106.216 511.428 106.158C512.269 106.1 512.998 106.736 513.056 107.577Z" fill="#E9891B"/>
<path d="M478.187 90.694C478.199 90.694 478.23 90.488 478.277 90.085C478.324 89.65 478.39 89.058 478.473 88.297C478.518 87.506 478.72 86.55 478.957 85.423C479.089 84.863 479.157 84.24 479.362 83.61C479.557 82.976 479.764 82.303 479.982 81.591C480.95 78.783 482.443 75.415 484.955 72.065C487.449 68.722 490.956 65.419 495.457 62.917C497.674 61.595 500.209 60.674 502.867 59.861C505.566 59.222 508.427 58.674 511.416 58.745C512.911 58.665 514.418 58.884 515.954 59.013C516.721 59.086 517.475 59.291 518.246 59.425C519.017 59.567 519.793 59.718 520.548 59.98C523.635 60.772 526.634 62.228 529.492 64.033C535.229 67.642 540.06 73.514 542.71 80.632C544.039 84.193 544.675 88.097 544.67 92.04C544.749 95.991 543.984 100.004 542.578 103.782L542.126 104.924L542.068 105.075L542.129 105.216C544.637 110.993 547.097 116.659 549.48 122.149L549.901 121.671C544.737 119.687 539.729 117.763 534.925 115.917L534.74 115.846L534.595 115.987C530.44 120.013 525.477 122.734 520.453 124.152C515.413 125.573 510.337 125.646 505.72 124.825C501.093 124.006 496.927 122.236 493.453 119.961C489.969 117.686 487.175 114.92 485.021 112.109C482.883 109.267 481.475 106.353 480.411 103.75C479.475 101.09 478.901 98.729 478.623 96.775C478.505 95.799 478.4 94.931 478.309 94.174C478.289 93.426 478.273 92.79 478.259 92.263C478.243 91.772 478.23 91.384 478.22 91.092C478.208 90.829 478.197 90.694 478.187 90.694C478.178 90.694 478.17 90.827 478.163 91.091C478.159 91.384 478.154 91.771 478.148 92.265C478.147 92.794 478.145 93.435 478.145 94.187C478.222 94.95 478.31 95.825 478.41 96.809C478.656 98.782 479.202 101.172 480.119 103.871C481.163 106.512 482.562 109.475 484.704 112.371C486.862 115.236 489.675 118.06 493.196 120.39C496.707 122.72 500.928 124.541 505.625 125.395C510.311 126.249 515.472 126.196 520.605 124.766C525.723 123.34 530.787 120.581 535.031 116.485L534.699 116.555C539.501 118.408 544.505 120.34 549.668 122.332L550.423 122.623L550.09 121.854C547.709 116.362 545.253 110.695 542.748 104.917L542.75 105.208L543.211 104.041C544.649 100.18 545.428 96.075 545.347 92.037C545.35 88.007 544.694 84.016 543.332 80.379C540.617 73.108 535.674 67.133 529.822 63.471C526.907 61.639 523.847 60.169 520.704 59.371C519.935 59.108 519.147 58.957 518.363 58.815C517.579 58.681 516.81 58.476 516.03 58.404C514.469 58.279 512.936 58.064 511.418 58.151C508.38 58.093 505.474 58.661 502.738 59.326C500.042 60.165 497.475 61.116 495.233 62.47C490.682 65.037 487.152 68.412 484.657 71.819C482.143 75.232 480.67 78.655 479.733 81.501C479.523 82.222 479.324 82.905 479.138 83.546C478.941 84.184 478.882 84.813 478.76 85.379C478.543 86.519 478.361 87.483 478.338 88.28C478.283 89.045 478.24 89.643 478.208 90.08C478.183 90.486 478.176 90.693 478.187 90.694Z" fill="#263238"/>
<defs>
<linearGradient id="paint0_linear_4460_210" x1="395.463" y1="56.2406" x2="395.463" y2="80.8097" gradientUnits="userSpaceOnUse">
<stop stop-color="#F1D848"/>
<stop offset="1" stop-color="#F58B1E"/>
</linearGradient>
<linearGradient id="paint1_linear_4460_210" x1="395.463" y1="10.1499" x2="395.463" y2="30.4498" gradientUnits="userSpaceOnUse">
<stop stop-color="#F1D848"/>
<stop offset="1" stop-color="#F58B1E"/>
</linearGradient>
<linearGradient id="paint2_linear_4460_210" x1="123.493" y1="384.952" x2="123.493" y2="400.455" gradientUnits="userSpaceOnUse">
<stop stop-color="#F1D848"/>
<stop offset="1" stop-color="#F58B1E"/>
</linearGradient>
<linearGradient id="paint3_linear_4460_210" x1="146.866" y1="404.505" x2="146.866" y2="412.875" gradientUnits="userSpaceOnUse">
<stop stop-color="#F1D848"/>
<stop offset="1" stop-color="#F58B1E"/>
</linearGradient>
<linearGradient id="paint4_linear_4460_210" x1="120.309" y1="416.713" x2="120.309" y2="423.249" gradientUnits="userSpaceOnUse">
<stop stop-color="#F1D848"/>
<stop offset="1" stop-color="#F58B1E"/>
</linearGradient>
<linearGradient id="paint5_linear_4460_210" x1="584.845" y1="170.708" x2="584.845" y2="204.947" gradientUnits="userSpaceOnUse">
<stop stop-color="#F1D848"/>
<stop offset="1" stop-color="#F58B1E"/>
</linearGradient>
<linearGradient id="paint6_linear_4460_210" x1="550" y1="241.5" x2="420.5" y2="420" gradientUnits="userSpaceOnUse">
<stop stop-color="#917C00"/>
<stop offset="1" stop-color="#F58B1E"/>
</linearGradient>
<linearGradient id="paint7_linear_4460_210" x1="340.946" y1="246.557" x2="340.946" y2="363.203" gradientUnits="userSpaceOnUse">
<stop stop-color="#F1D848"/>
<stop offset="1" stop-color="#F58B1E"/>
</linearGradient>
</defs>
</svg>
